<svg width="19" height="19" viewBox="0 0 19 19" fill="none" xmlns="http://www.w3.org/2000/svg">
<path d="M9.002 18.041C6.542 18.041 6.252 18.028 5.292 17.986C4.54337 17.9614 3.80443 17.8092 3.107 17.536C2.51018 17.3037 1.96818 16.9499 1.51542 16.497C1.06266 16.044 0.709033 15.5019 0.476999 14.905C0.214305 14.205 0.0726168 13.4655 0.0579989 12.718C0.00199889 11.76 0.0019989 11.446 0.0019989 9.005C0.0019989 6.538 0.0149989 6.25 0.0579989 5.295C0.0729365 4.54852 0.21462 3.81001 0.476999 3.111C0.708766 2.51334 1.06263 1.97058 1.51599 1.51739C1.96935 1.0642 2.51225 0.71054 3.11 0.479C3.80864 0.215202 4.54734 0.0731443 5.294 0.059C6.249 0.00500001 6.563 0.00500011 9.002 0.00500011C11.482 0.00500011 11.767 0.018 12.712 0.059C13.46 0.073 14.202 0.215 14.902 0.479C15.4996 0.710809 16.0423 1.06456 16.4957 1.51772C16.949 1.97087 17.303 2.51349 17.535 3.111C17.802 3.821 17.945 4.571 17.956 5.328C18.012 6.286 18.012 6.599 18.012 9.039C18.012 11.479 17.998 11.799 17.956 12.746C17.9411 13.4942 17.799 14.2344 17.536 14.935C17.3034 15.5323 16.9491 16.0748 16.4956 16.5279C16.0422 16.981 15.4995 17.3348 14.902 17.567C14.202 17.829 13.463 17.971 12.716 17.986C11.761 18.041 11.448 18.041 9.002 18.041V18.041ZM8.968 1.588C6.522 1.588 6.268 1.6 5.313 1.643C4.74265 1.65046 4.1778 1.75565 3.643 1.954C3.25293 2.10352 2.89852 2.33311 2.60262 2.62798C2.30671 2.92285 2.07588 3.27646 1.925 3.666C1.725 4.206 1.62 4.777 1.614 5.353C1.561 6.322 1.561 6.576 1.561 9.005C1.561 11.405 1.57 11.696 1.614 12.659C1.623 13.229 1.728 13.794 1.925 14.329C2.231 15.116 2.855 15.738 3.644 16.04C4.17811 16.2396 4.74285 16.3448 5.313 16.351C6.281 16.407 6.536 16.407 8.968 16.407C11.421 16.407 11.675 16.395 12.622 16.351C13.1924 16.3441 13.7573 16.2389 14.292 16.04C14.68 15.8893 15.0324 15.6596 15.3268 15.3654C15.6212 15.0712 15.8511 14.7189 16.002 14.331C16.202 13.791 16.307 13.219 16.313 12.643H16.324C16.367 11.687 16.367 11.432 16.367 8.989C16.367 6.546 16.356 6.289 16.313 5.334C16.304 4.76446 16.1988 4.20053 16.002 3.666C15.8515 3.27755 15.6217 2.9247 15.3273 2.62995C15.0328 2.3352 14.6803 2.10499 14.292 1.954C13.7575 1.75468 13.1924 1.64946 12.622 1.643C11.655 1.588 11.402 1.588 8.968 1.588V1.588ZM9.002 13.624C8.08757 13.6246 7.19351 13.354 6.43289 12.8464C5.67226 12.3388 5.07925 11.6171 4.72886 10.7725C4.37847 9.92782 4.28643 8.99825 4.46439 8.10131C4.64235 7.20436 5.08231 6.38034 5.72863 5.73346C6.37495 5.08658 7.19859 4.64591 8.09538 4.46717C8.99217 4.28844 9.92182 4.37967 10.7668 4.72933C11.6117 5.07899 12.334 5.67138 12.8422 6.43156C13.3504 7.19174 13.6218 8.08557 13.622 9C13.6204 10.2252 13.1333 11.3998 12.2673 12.2665C11.4014 13.1332 10.2272 13.6214 9.002 13.624V13.624ZM9.002 5.998C8.40865 5.998 7.82864 6.17395 7.33529 6.50359C6.84194 6.83324 6.45742 7.30177 6.23036 7.84995C6.0033 8.39813 5.94389 9.00133 6.05964 9.58327C6.1754 10.1652 6.46112 10.6998 6.88068 11.1193C7.30024 11.5389 7.83478 11.8246 8.41673 11.9404C8.99867 12.0561 9.60187 11.9967 10.15 11.7696C10.6982 11.5426 11.1668 11.1581 11.4964 10.6647C11.8261 10.1714 12.002 9.59134 12.002 8.998C12.0002 8.20292 11.6835 7.44093 11.1213 6.87872C10.5591 6.31651 9.79708 5.99985 9.002 5.998ZM13.802 5.285C13.6604 5.28447 13.5204 5.25607 13.3898 5.20141C13.2592 5.14675 13.1406 5.06691 13.0409 4.96643C12.8395 4.76352 12.7269 4.4889 12.728 4.203C12.7291 3.9171 12.8437 3.64332 13.0466 3.44191C13.2495 3.2405 13.5241 3.12794 13.81 3.129C14.0959 3.13006 14.3697 3.24465 14.5711 3.44757C14.7725 3.65048 14.8851 3.9251 14.884 4.211C14.8829 4.4969 14.7683 4.77068 14.5654 4.97209C14.3625 5.1735 14.0879 5.28606 13.802 5.285Z" fill="white"/>
</svg>
