<svg width="21" height="20" viewBox="0 0 21 20" fill="none" xmlns="http://www.w3.org/2000/svg">
<path d="M10.026 2.61526e-07C7.65708 -0.000304154 5.36538 0.842479 3.56108 2.3775C1.75679 3.91252 0.557682 6.03957 0.178401 8.37793C-0.20088 10.7163 0.264421 13.1133 1.49102 15.1399C2.71762 17.1666 4.62544 18.6905 6.873 19.439C7.373 19.529 7.552 19.222 7.552 18.958C7.552 18.721 7.544 18.093 7.541 17.258C4.766 17.858 4.18 15.92 4.18 15.92C3.99732 15.317 3.60458 14.7993 3.073 14.461C2.173 13.842 3.142 13.856 3.142 13.856C3.782 13.944 4.347 14.323 4.669 14.884C4.80413 15.1297 4.98657 15.3462 5.2058 15.521C5.42503 15.6959 5.6767 15.8255 5.94631 15.9026C6.21591 15.9797 6.49811 16.0026 6.77662 15.9701C7.05512 15.9375 7.32443 15.8502 7.569 15.713C7.615 15.207 7.841 14.734 8.204 14.379C5.99 14.128 3.662 13.272 3.662 9.449C3.64971 8.4602 4.0169 7.5043 4.688 6.778C4.38435 5.91731 4.42011 4.97325 4.788 4.138C4.788 4.138 5.625 3.869 7.53 5.159C9.16385 4.71101 10.8882 4.71101 12.522 5.159C14.428 3.868 15.264 4.138 15.264 4.138C15.634 4.973 15.669 5.918 15.364 6.778C16.0376 7.50423 16.4044 8.46264 16.388 9.453C16.388 13.286 14.058 14.128 11.836 14.375C12.316 14.865 12.561 15.537 12.511 16.221C12.511 17.555 12.499 18.631 12.499 18.958C12.499 19.225 12.677 19.535 13.186 19.437C15.4327 18.6872 17.3392 17.1625 18.5646 15.1357C19.7899 13.1088 20.2541 10.7121 19.874 8.37432C19.4939 6.03655 18.2945 3.91029 16.4901 2.37599C14.6858 0.841687 12.3945 -0.000541836 10.026 2.61526e-07Z" fill="white"/>
</svg>
