<svg width="20" height="20" viewBox="0 0 20 20" fill="none" xmlns="http://www.w3.org/2000/svg">
<path d="M10 20C4.477 20 0 15.523 0 10C0 4.477 4.477 0 10 0C15.523 0 20 4.477 20 10C19.994 15.52 15.52 19.994 10 20ZM4.807 8.543C4.47398 8.54319 4.15104 8.65722 3.89174 8.86617C3.63243 9.07513 3.45236 9.36645 3.38138 9.69181C3.3104 10.0172 3.35278 10.357 3.50149 10.655C3.65021 10.953 3.89632 11.1911 4.199 11.33C4.18644 11.4761 4.18644 11.6229 4.199 11.769C4.199 14.009 6.814 15.831 10.028 15.831C13.242 15.831 15.858 14.009 15.858 11.769C15.8696 11.6229 15.8696 11.4761 15.858 11.33C16.1526 11.1868 16.3897 10.9476 16.5302 10.6516C16.6706 10.3556 16.706 10.0207 16.6305 9.7019C16.555 9.38312 16.3732 9.09958 16.115 8.898C15.8568 8.69643 15.5376 8.58885 15.21 8.593H15.157C14.7988 8.60623 14.458 8.75115 14.2 9C13.0625 8.22651 11.7252 7.79927 10.35 7.77L11 4.65L13.138 5.1C13.1667 5.36361 13.2989 5.60503 13.5055 5.77118C13.7122 5.93733 13.9764 6.0146 14.24 5.986C14.4953 5.96037 14.731 5.83761 14.8983 5.64309C15.0656 5.44857 15.1517 5.19719 15.1389 4.94094C15.126 4.68469 15.0152 4.44318 14.8293 4.26637C14.6433 4.08955 14.3966 3.99097 14.14 3.991C14.1022 3.99147 14.0644 3.99448 14.027 4C13.8707 4.0166 13.7206 4.0698 13.5887 4.15528C13.4568 4.24076 13.347 4.35612 13.268 4.492L10.82 4C10.7401 3.98335 10.6568 3.9989 10.5883 4.04328C10.5198 4.08765 10.4715 4.15726 10.454 4.237L9.706 7.71C8.31382 7.7297 6.95795 8.15698 5.806 8.939C5.53601 8.68392 5.17843 8.54218 4.807 8.543ZM10.18 14.524H9.842C9.01208 14.5208 8.20537 14.2497 7.542 13.751C7.49725 13.6997 7.47363 13.6333 7.47591 13.5652C7.47819 13.4971 7.50621 13.4325 7.5543 13.3843C7.60239 13.336 7.66698 13.3079 7.73504 13.3054C7.80309 13.3029 7.86955 13.3264 7.921 13.371C8.481 13.781 9.159 14.002 9.854 14H10.178C10.864 14.0011 11.5329 13.7863 12.09 13.386C12.1161 13.3594 12.1472 13.3383 12.1815 13.3238C12.2159 13.3094 12.2527 13.302 12.29 13.302C12.3273 13.302 12.3641 13.3094 12.3985 13.3238C12.4328 13.3383 12.4639 13.3594 12.49 13.386C12.5421 13.4398 12.5708 13.5121 12.5699 13.587C12.5689 13.662 12.5384 13.7335 12.485 13.786V13.746C11.8213 14.2481 11.0123 14.5208 10.18 14.523V14.524ZM12.307 12.08H12.291L12.299 12.041C12.0855 12.0264 11.8834 11.9393 11.7261 11.7942C11.5688 11.6491 11.4659 11.4546 11.4343 11.2429C11.4027 11.0312 11.4443 10.8151 11.5523 10.6304C11.6603 10.4456 11.8281 10.3033 12.028 10.2269C12.228 10.1506 12.448 10.1449 12.6516 10.2106C12.8553 10.2764 13.0303 10.4098 13.1478 10.5887C13.2653 10.7675 13.3182 10.9812 13.2976 11.1942C13.2771 11.4072 13.1845 11.6068 13.035 11.76C12.9464 11.8568 12.8393 11.9349 12.7202 11.9898C12.601 12.0448 12.4721 12.0754 12.341 12.08H12.306H12.307ZM7.67 12C7.40478 12 7.15043 11.8946 6.96289 11.7071C6.77536 11.5196 6.67 11.2652 6.67 11C6.67 10.7348 6.77536 10.4804 6.96289 10.2929C7.15043 10.1054 7.40478 10 7.67 10C7.93522 10 8.18957 10.1054 8.37711 10.2929C8.56464 10.4804 8.67 10.7348 8.67 11C8.67 11.2652 8.56464 11.5196 8.37711 11.7071C8.18957 11.8946 7.93522 12 7.67 12Z" fill="white"/>
</svg>
