<svg width="22" height="17" viewBox="0 0 22 17" fill="none" xmlns="http://www.w3.org/2000/svg">
<path d="M18.995 2.688C19.8914 2.15209 20.5622 1.30824 20.882 0.314C20.0397 0.81382 19.118 1.1659 18.157 1.355C17.5088 0.66935 16.6531 0.215919 15.7218 0.0646017C14.7905 -0.0867152 13.8353 0.0724827 13.0034 0.517656C12.1715 0.962829 11.5091 1.66926 11.1183 2.52806C10.7276 3.38686 10.6301 4.35035 10.841 5.27C9.13488 5.18434 7.46584 4.74088 5.94222 3.96838C4.41859 3.19589 3.07444 2.11164 1.997 0.786C1.44906 1.7311 1.2814 2.84933 1.52805 3.91358C1.7747 4.97782 2.41718 5.90829 3.325 6.516C2.64371 6.4941 1.97753 6.30964 1.382 5.978V6.032C1.38219 7.02297 1.72513 7.98338 2.35266 8.75034C2.98019 9.5173 3.85368 10.0436 4.825 10.24C4.19306 10.4119 3.53021 10.4372 2.887 10.314C3.16173 11.1663 3.69571 11.9116 4.41441 12.4458C5.13311 12.9801 6.00066 13.2766 6.896 13.294C5.37583 14.4871 3.49848 15.1342 1.566 15.131C1.223 15.131 0.881 15.111 0.541 15.072C2.50341 16.333 4.78738 17.0023 7.12 17C8.7266 17.011 10.3194 16.7027 11.8058 16.093C13.2923 15.4832 14.6427 14.5841 15.7787 13.448C16.9147 12.3119 17.8137 10.9614 18.4233 9.47489C19.033 7.98841 19.3412 6.3956 19.33 4.789C19.33 4.603 19.326 4.418 19.317 4.234C20.1575 3.62662 20.8828 2.87416 21.459 2.012C20.676 2.35905 19.8455 2.58691 18.995 2.688Z" fill="white"/>
</svg>
